<svg width="800" height="800" viewBox="0 0 800 800" fill="none" xmlns="http://www.w3.org/2000/svg">
<circle cx="400" cy="400" r="400" fill="#D9B864"/>
<path d="M536.985 199.596C536.64 181.046 516.285 165.06 491.215 165.06C465.937 165.06 445.861 181.287 445.861 200.083C445.861 181.321 425.09 166.448 399.812 166.448C374.534 166.448 353.764 181.287 353.764 200.083C353.764 181.321 333.69 166.1 308.412 166.1C283.34 166.1 262.988 181.046 262.639 199.596C263.159 118.874 324.398 68.5969 399.849 68.5969C475.229 68.5969 536.465 118.874 536.985 199.596Z" fill="#020202"/>
<path d="M540.626 199.597C540.14 181.287 523.984 168.249 507.546 163.638C489.203 158.508 467.463 162.183 453.455 175.6C446.762 182.015 442.326 190.684 442.255 200.083H449.536C449.401 181.844 433.067 169.43 416.837 165.027C398.393 160.033 376.445 163.152 361.774 176.016C354.803 182.119 350.195 190.72 350.125 200.08H357.405C357.267 182.052 341.698 169.393 325.575 164.819C307.268 159.618 285.421 162.84 270.894 175.6C263.923 181.703 259.275 190.268 259 199.633H266.28C266.491 171.683 274.466 144.29 291.491 121.889C306.99 101.467 329.599 86.729 354.078 79.0665C380.466 70.8139 409.419 70.0158 436.222 76.4675C461.638 82.6042 485.078 95.5718 502.589 115.095C520.516 135.135 530.744 161.247 532.927 188.152C533.239 191.968 533.38 195.781 533.416 199.597C533.38 204.275 540.663 204.275 540.626 199.597C540.382 170.54 532.132 141.516 514.447 118.18C497.734 96.1619 474.223 80.4547 447.942 72.1317C420.237 63.396 389.725 62.5979 361.499 69.392C334.867 75.807 309.901 89.6766 291.662 110.242C272.454 131.872 261.773 159.437 259.489 188.118C259.188 191.924 259.025 195.739 259 199.557C258.966 204.238 266.143 204.238 266.28 199.557C266.351 196.646 267.115 193.179 268.36 190.613C269.792 187.594 271.741 184.848 274.117 182.498C279.56 177.019 286.776 173.414 294.298 171.472C309.763 167.448 328.66 169.943 340.762 180.835C343.743 183.538 345.963 186.244 347.764 189.815C349.337 192.997 350.168 196.494 350.195 200.043C350.229 204.724 357.442 204.724 357.475 200.043C357.509 193.628 360.389 187.666 365.104 182.914C370.513 177.471 377.656 173.934 385.077 171.958C400.784 167.797 420.133 170.121 432.614 180.972C435.666 183.608 437.956 186.311 439.794 189.849C441.41 192.993 442.265 196.474 442.289 200.009C442.326 204.688 449.536 204.688 449.572 200.009C449.606 193.594 452.346 187.458 456.819 182.568C462.017 176.881 468.918 172.961 476.339 170.778C492.013 166.167 510.946 168.836 523.357 179.933C526.445 182.672 528.799 185.55 530.71 189.155C532.385 192.362 533.309 195.907 533.413 199.523C533.447 204.275 540.73 204.275 540.626 199.594V199.597ZM408.275 338.467V310C408.275 305.56 404.355 301.295 399.778 301.506C395.167 301.713 391.284 305.248 391.284 310V338.467C391.284 342.906 395.201 347.172 399.778 346.961C404.389 346.753 408.275 343.218 408.275 338.467Z" fill="#020202"/>
<path d="M408.275 68.5971V52.5046C408.275 48.0648 404.355 43.7994 399.778 44.0073C395.167 44.2152 391.284 47.7529 391.284 52.5046V68.594C391.284 73.0307 395.201 77.2961 399.778 77.0882C404.389 76.8803 408.272 73.3425 408.272 68.594L408.275 68.5971ZM408.275 208.091V166.482C408.275 162.042 404.355 157.777 399.778 157.988C395.167 158.196 391.284 161.73 391.284 166.482V208.091C391.284 212.531 395.201 216.793 399.778 216.585C404.389 216.377 408.275 212.842 408.275 208.091ZM428.419 338.537C428.419 339.161 428.281 339.821 428.315 340.445C428.523 338.953 428.56 338.675 428.419 339.577L428.211 340.479C428.074 340.998 427.829 341.485 427.725 342.004C427.48 342.628 427.658 342.28 428.177 341.032C428.037 341.31 427.933 341.589 427.795 341.864C427.52 342.383 427.242 342.903 426.893 343.423C425.679 345.297 427.866 342.454 426.893 343.493C426.166 344.258 425.334 344.915 424.64 345.68C425.783 344.811 425.991 344.64 425.264 345.16C425.019 345.331 424.777 345.505 424.499 345.646C424.12 345.888 423.704 346.062 423.322 346.303C422.074 347.031 425.401 345.576 423.252 346.337C422.677 346.548 422.086 346.712 421.484 346.826C421.186 346.897 420.885 346.954 420.582 346.997C421.035 346.927 421.484 346.894 421.9 346.823C421.31 346.753 420.585 346.927 419.992 346.927H416.733C416.179 346.927 415.626 346.894 415.069 346.857C414.375 346.79 414.757 346.826 416.146 346.997C415.841 346.959 415.54 346.901 415.244 346.823C414.653 346.686 414.063 346.478 413.473 346.303C412.088 345.921 415.418 347.309 413.406 346.27C413.001 346.07 412.607 345.85 412.226 345.609C411.981 345.435 411.706 345.297 411.461 345.123C410.77 344.603 410.978 344.778 412.088 345.643C411.394 344.882 410.559 344.224 409.835 343.46C408.862 342.42 411.048 345.264 409.835 343.389C409.523 342.87 409.211 342.35 408.933 341.83C408.792 341.559 408.664 341.281 408.55 340.998C408.725 341.381 408.899 341.793 409.07 342.179C409.07 341.659 408.654 340.928 408.517 340.408C408.446 340.096 408.376 339.818 408.309 339.506C408.134 338.604 408.168 338.882 408.413 340.375C408.446 339.751 408.309 339.09 408.309 338.467C408.238 334.03 404.459 329.764 399.812 329.972C395.271 330.18 391.25 333.718 391.317 338.467C391.492 349.945 399.466 360.797 410.978 363.225C420.478 365.236 431.192 363.469 438.197 356.323C442.845 351.575 445.41 345.16 445.478 338.537C445.548 334.097 441.527 329.832 436.984 330.04C432.269 330.251 428.486 333.785 428.419 338.537Z" fill="#020202"/>
<path d="M425.334 214.68C417.515 210.346 408.719 208.079 399.778 208.091C397.005 208.091 394.299 208.299 391.63 208.715C385.505 209.661 379.599 211.692 374.189 214.714C365.957 219.276 359.097 225.959 354.323 234.068C349.548 242.178 347.032 251.419 347.037 260.83V261.524C347.184 273.615 351.495 285.285 359.243 294.568C361.871 297.717 364.85 300.555 368.122 303.029C377.239 309.878 388.341 313.568 399.745 313.538C400.439 313.538 401.096 313.568 401.757 313.538C414.052 313.08 425.796 308.318 434.938 300.084C440.459 295.144 444.872 289.094 447.89 282.329C450.908 275.564 452.462 268.237 452.45 260.83C452.473 251.415 449.969 242.166 445.2 234.049C440.431 225.931 433.57 219.243 425.334 214.68ZM397.005 248.764L396.277 248.972C396.623 248.868 395.654 249.284 395.55 249.321C395.468 249.38 395.372 249.416 395.271 249.425C395.206 249.487 395.147 249.557 395.097 249.633C395.03 249.7 394.507 250.36 394.507 250.29C394.403 250.464 394.336 250.602 394.232 250.776C394.195 250.81 394.195 250.846 394.161 250.88C394.161 250.914 394.128 250.914 394.128 250.95L394.091 250.981C393.816 251.33 394.128 250.532 394.091 250.981C394.091 251.054 394.091 251.158 394.057 251.262C394.024 251.366 393.883 252.788 393.92 251.816V252.718C393.92 252.684 393.883 252.647 393.883 252.614C393.883 252.647 393.92 252.718 393.92 252.751V252.718C393.92 252.751 393.953 252.788 393.953 252.855C393.987 252.926 394.299 253.828 394.229 253.724C394.336 253.932 394.44 254.14 394.577 254.314C394.507 254.173 395.097 254.901 395.167 254.971C395.218 255.046 395.277 255.116 395.342 255.179H395.271C395.305 255.213 395.342 255.213 395.375 255.213L395.342 255.179C395.425 255.219 395.506 255.265 395.583 255.317C395.687 255.353 396.659 255.769 396.311 255.699L397.039 255.907C396.971 255.907 397.005 255.907 397.213 255.944C397.143 255.944 397.109 255.907 397.039 255.907H397.525C399.986 255.769 402.83 255.769 405.258 256.289C409.869 257.329 413.614 261.108 414.895 265.615C416.25 270.367 414.724 275.846 411.012 279.139C409.216 280.744 407.027 281.845 404.668 282.328V286.144C404.668 288.847 402.448 290.893 399.812 290.997C397.179 291.101 394.959 288.673 394.959 286.144V282.677H389.064C386.429 282.677 384.209 280.387 384.209 277.754C384.209 275.118 386.429 272.831 389.064 272.831C393.363 272.831 397.733 272.62 402.068 272.831H402.588C402.839 272.793 403.084 272.722 403.316 272.62C403.004 272.69 403.973 272.308 404.044 272.275C404.117 272.222 404.2 272.187 404.288 272.171C404.319 272.134 404.389 272.067 404.46 271.963C404.53 271.892 405.05 271.235 405.05 271.302C405.154 271.165 405.224 270.99 405.325 270.816C405.362 270.778 405.386 270.73 405.395 270.678L405.432 270.645C405.432 270.608 405.463 270.608 405.463 270.575C405.432 270.99 405.744 270.229 405.463 270.575C405.463 270.504 405.462 270.4 405.499 270.299C405.536 270.192 405.64 269.049 405.64 269.501V268.807C405.64 268.77 405.603 268.737 405.603 268.703C405.57 268.633 405.224 267.627 405.359 267.872C405.253 267.64 405.126 267.419 404.979 267.211C405.12 267.486 404.493 266.658 404.426 266.587C404.322 266.483 404.285 266.413 404.252 266.379C404.181 266.346 404.114 266.309 404.007 266.275C403.906 266.242 402.863 265.789 403.316 265.927C403.041 265.86 402.796 265.756 402.518 265.719C402.588 265.719 402.552 265.719 402.344 265.688C402.414 265.688 402.448 265.719 402.518 265.719H402.032C399.57 265.86 396.727 265.893 394.336 265.34C389.722 264.3 385.979 260.518 384.695 256.014C383.343 251.262 384.869 245.817 388.578 242.523C390.377 240.927 392.567 239.838 394.926 239.368V235.518C394.926 232.779 397.143 230.77 399.778 230.666C402.414 230.562 404.634 232.99 404.634 235.518V238.986H410.529C413.162 238.986 415.382 241.239 415.382 243.878C415.382 246.511 413.162 248.764 410.529 248.764C406.227 248.764 401.861 248.972 397.525 248.764H397.005C397.075 248.764 397.143 248.731 397.179 248.731C397.005 248.764 396.971 248.764 397.005 248.764Z" fill="#020202"/>
<path d="M176.095 443.12C156.752 454.134 141.439 466.492 132.035 486.642C122.632 506.254 115.108 530.165 120.483 551.927C128.812 557.031 141.17 550.585 150.035 547.628C152.184 555.42 152.453 563.48 150.842 571.002C154.334 569.926 157.557 568.584 159.706 568.047C162.393 576.643 159.706 589.808 152.184 598.673C146.543 605.39 138.213 608.883 128.542 607.808C121.556 607.271 115.11 603.779 110.005 598.943C95.2294 595.45 83.9432 582.286 79.9164 569.121C69.1689 534.464 74.2733 498.464 85.5576 466.494C97.377 433.985 132.033 393.417 162.124 377.565C165.886 382.401 169.11 390.73 171.259 399.597C172.066 399.058 173.14 398.521 174.214 397.984C179.857 405.506 187.916 436.403 176.097 443.118L176.095 443.12ZM162.124 428.612C172.066 422.702 165.886 395.298 160.245 386.163C135.796 399.597 103.02 438.015 92.0042 468.91C80.7199 499.806 76.1543 534.464 86.363 567.24C90.3935 579.868 101.676 591.689 115.11 593.032C124.513 594.107 132.304 590.614 137.677 584.434C144.662 576.106 147.08 564.553 145.469 556.226C139.826 558.375 134.185 560.525 128.273 560.525C120.751 560.793 112.96 557.837 108.661 547.091C98.4526 522.643 106.78 494.702 117.259 472.672C127.199 451.984 142.512 439.626 162.124 428.612ZM271.409 401.207C259.589 457.359 256.633 532.046 259.051 591.689C255.29 598.136 232.722 609.689 230.572 600.017C230.035 598.136 229.767 596.255 229.499 594.376C221.439 596.794 213.647 595.718 211.768 587.659C209.885 579.061 209.885 570.732 210.425 562.137L206.932 562.943C204.245 575.301 201.827 593.569 200.752 601.361C194.842 603.779 184.9 600.017 179.527 593.032C167.169 590.882 155.348 580.405 157.766 566.703C168.513 504.373 188.93 441.775 203.707 403.625C210.692 385.089 254.754 373.268 263.618 385.089C262.813 389.386 262.007 395.029 261.2 399.597C266.305 399.326 270.335 399.597 271.409 401.207ZM209.887 406.043C195.379 443.925 174.96 505.986 164.212 567.779C162.065 580.137 178.185 589.54 185.976 586.854C187.049 578.793 189.736 561.33 192.424 548.435L218.214 541.718C217.946 553.271 217.14 560.525 216.872 567.24C216.603 573.688 216.872 579.6 218.483 586.315C219.29 590.345 224.663 589.272 230.304 587.122C236.484 584.973 242.394 580.672 244.275 577.987C241.857 518.613 244.812 444.193 256.364 388.044C251.528 385.089 215.798 390.728 209.887 406.043ZM220.095 510.285C213.647 511.896 206.932 513.508 199.141 515.926C205.051 492.552 213.11 470.254 219.558 447.417C222.245 437.208 227.618 436.403 226.81 442.044C223.589 469.985 221.708 490.941 220.095 510.285ZM343.887 552.734C348.992 557.568 345.23 580.942 332.873 588.733C319.976 597.062 293.111 604.048 283.439 600.822C281.289 600.017 280.214 597.331 279.408 593.3C275.111 593.569 271.081 593.3 268.394 592.495C261.409 590.077 258.454 568.852 262.214 548.704C269.2 512.434 282.902 424.581 292.037 382.94C308.962 377.565 328.036 390.73 328.036 404.701C333.41 408.998 336.902 414.91 335.828 420.282C328.574 456.283 317.558 498.195 311.38 539.569C318.097 537.151 324.812 534.733 332.066 533.659C336.902 538.226 338.246 546.286 336.902 554.345C339.244 553.867 341.573 553.331 343.887 552.734ZM329.917 540.911C327.499 541.179 324.812 541.987 322.126 542.794C313.261 545.747 302.514 550.583 293.379 550.853C298.483 500.611 312.454 449.568 321.052 406.58C322.933 397.445 308.962 385.358 297.946 388.044C289.08 427.268 275.648 513.777 268.931 550.048C265.439 568.047 265.976 584.434 270.544 586.046C279.408 589.001 306.006 582.555 318.634 574.227C330.453 566.971 333.41 545.745 329.917 540.911ZM445.649 443.12C426.306 454.134 410.993 466.492 401.59 486.642C392.186 506.254 384.662 530.165 390.037 551.927C398.366 557.031 410.725 550.585 419.589 547.628C421.739 555.42 422.007 563.48 420.396 571.002C423.888 569.926 427.111 568.584 429.261 568.047C431.949 576.643 429.261 589.808 421.739 598.673C416.097 605.39 407.768 608.883 398.096 607.808C391.113 607.271 384.664 603.779 379.56 598.943C364.784 595.45 353.498 582.286 349.471 569.121C338.723 534.464 343.828 498.464 355.112 466.494C366.931 433.985 401.588 393.417 431.679 377.565C435.441 382.401 438.664 390.73 440.814 399.597C441.621 399.058 442.695 398.521 443.768 397.984C449.412 405.506 457.471 436.403 445.651 443.118L445.649 443.12ZM431.679 428.612C441.621 422.702 435.441 395.298 429.8 386.163C405.35 399.597 372.574 438.015 361.559 468.91C350.276 499.806 345.709 534.464 355.917 567.24C359.948 579.868 371.23 591.689 384.664 593.032C394.067 594.107 401.858 590.614 407.231 584.434C414.216 576.106 416.634 564.553 415.023 556.226C409.38 558.375 403.739 560.525 397.828 560.525C390.305 560.793 382.515 557.837 378.216 547.091C368.007 522.643 376.335 494.702 386.814 472.672C396.754 451.984 412.067 439.626 431.679 428.612ZM533.98 419.746C548.219 451.447 541.502 489.597 533.441 522.643C528.118 545.558 519.234 567.497 507.112 587.659C500.934 597.599 490.455 604.316 479.709 603.509C473.529 602.972 467.89 599.749 463.858 595.181C452.307 593.3 442.635 583.36 439.678 573.151C424.097 519.15 439.141 460.851 460.097 419.209C467.083 405.238 479.172 386.163 500.397 386.163C513.024 386.163 521.89 396.103 525.382 404.162C526.456 406.58 527.531 408.998 528.337 411.416C530.755 414.104 532.636 416.791 533.98 419.746ZM519.202 406.851C516.247 400.134 509.262 392.88 500.397 392.88C483.47 392.88 473.261 407.924 466.007 422.164C445.59 463 431.082 519.418 446.127 571.27C448.545 579.868 456.872 587.927 466.276 588.733C476.486 589.54 486.695 583.092 492.338 573.688C504.694 553.539 513.292 531.778 518.665 508.943C526.726 475.895 533.441 438.284 519.202 406.851ZM501.739 435.597C506.575 473.746 498.248 514.582 479.978 547.091C477.828 550.853 471.382 554.076 468.158 549.777C462.247 541.179 463.052 518.076 464.665 504.373C467.89 478.581 479.173 445.806 491.529 432.372C494.217 429.417 500.664 427.805 501.739 435.597ZM496.367 461.387C488.307 477.239 481.859 499.269 479.439 518.076C478.904 523.18 478.365 529.628 478.365 536.075C489.381 513.508 495.83 487.448 496.367 461.387ZM604.038 409.268C590.606 462.195 577.441 538.493 572.068 598.405C564.276 600.554 552.993 595.987 547.352 589.27C535.262 586.315 524.515 577.719 525.591 566.434C529.888 523.448 547.083 445.806 558.905 381.595C574.755 378.641 589.531 384.013 596.516 394.761L594.635 401.744C598.666 403.627 602.159 406.312 604.038 409.268ZM589.262 395.835C585.234 390.462 574.486 385.894 564.814 387.237C553.53 447.687 536.605 524.254 532.306 566.971C531.5 576.375 547.083 586.046 557.561 583.899C562.665 524.254 575.83 448.761 589.262 395.835ZM726.488 386.431C709.561 458.969 696.129 540.911 691.561 591.689C682.697 602.167 661.204 606.734 657.442 595.45L656.636 593.032C648.307 593.3 641.322 590.345 638.904 583.897C634.875 571.807 632.457 558.912 630.576 546.015C629.234 558.107 628.158 570.195 627.084 585.239C619.83 591.151 608.009 594.913 596.725 593.837C597.262 590.614 598.067 587.39 598.606 584.165C592.158 585.508 585.172 586.048 577.111 585.508C583.291 550.583 587.322 518.881 591.889 489.06C596.456 458.971 601.829 430.491 609.888 407.656C614.456 395.029 638.098 382.401 654.755 386.431C655.024 392.341 655.561 398.253 655.831 404.162C658.516 403.625 660.935 403.625 663.083 404.162C663.89 418.67 664.695 432.104 665.503 444.462C669.697 422.68 673.996 400.918 678.398 379.178C685.65 371.385 704.727 366.014 719.503 368.7C718.16 374.879 716.816 381.059 715.472 386.97C719.771 386.163 723.802 385.894 726.488 386.431ZM711.444 374.071C703.651 373.536 689.143 377.833 684.576 382.401C676.785 420.282 669.8 465.149 664.427 493.896C663.622 498.464 659.323 500.074 658.249 494.97C656.099 486.374 653.682 469.717 652.339 452.253C650.995 435.327 649.919 414.91 648.307 391.804C638.635 390.462 619.56 400.939 616.337 410.074C608.544 432.104 603.173 460.045 598.606 490.134C594.039 519.418 590.008 550.583 584.904 579.329C595.112 579.598 605.591 576.375 612.308 571.002C614.724 539.837 616.876 519.688 623.322 489.06C623.859 485.835 629.502 483.688 630.039 487.448C632.994 502.761 634.338 520.225 636.486 536.882C638.633 553.539 641.053 569.658 645.352 581.479C648.307 590.614 667.65 587.927 677.054 577.719C681.353 526.942 694.786 446.341 711.444 374.071Z" fill="#020202"/>
</svg>
